<svg xmlns="http://www.w3.org/2000/svg" version="1.1" xmlns:xlink="http://www.w3.org/1999/xlink" width="32" height="32">
  <svg xmlns="http://www.w3.org/2000/svg" version="1.1" xmlns:xlink="http://www.w3.org/1999/xlink" width="32" height="32">
    <svg width="32" height="32" viewBox="0 0 32 32" fill="none" xmlns="http://www.w3.org/2000/svg">
      <path fill-rule="evenodd" clip-rule="evenodd" d="M0.0142157 20.6111C0.11958 20.0637 2.02061 18.9631 9.41967 15.1661C15.801 11.8913 20.1027 10.4255 21.0426 11.2056C21.5729 11.6456 21.6389 12.7491 21.1857 13.596C20.3481 15.1611 22.444 14.3045 24.2504 12.3435C25.4774 11.0116 26.1598 10.7469 26.1568 11.6041C26.1563 11.7948 25.2962 12.9333 24.2459 14.1341C20.5619 18.3457 19.2359 20.2472 19.9833 20.2472C20.1904 20.2472 22.4951 18.8715 27.9047 15.5188C31.3796 13.3651 31.7128 13.1875 31.9094 13.3842C32.3591 13.8339 31.2353 14.6905 26.2459 17.7009C19.6087 21.7055 18.0254 22.0692 18.0116 19.5923C18.0061 18.6039 17.6563 18.5857 16.4438 19.5105C14.9488 20.6507 13.4948 21.1613 12.6534 20.8415C11.8446 20.534 11.3118 19.723 11.3118 18.7993C11.3118 17.9996 12.2512 16.1737 13.0206 15.4779C14.1041 14.498 13.3676 14.4226 11.6645 15.3392C10.7501 15.8312 9.87088 16.3394 9.71077 16.4684C9.18351 16.8933 0.583139 21.1205 0.24597 21.1205C0.0645785 21.1205 -0.039711 20.8913 0.0142157 20.6111ZM18.7193 15.508C18.3089 16.4599 16.2889 18.6858 15.1597 19.4305C14.3252 19.9808 13.3496 20.1287 13.3496 19.7048C13.3496 19.1049 18.1461 12.9697 18.6151 12.9697C18.9953 12.9697 19.0664 14.7029 18.7193 15.508Z" fill="black"></path>
    </svg>
  </svg>
  <style>
    @media (prefers-color-scheme: light) {
      :root {
        filter: none;
      }
    }

    @media (prefers-color-scheme: dark) {
      :root {
        filter: invert(100%);
      }
    }
  </style>
</svg>